<svg xmlns="http://www.w3.org/2000/svg" width="20" height="16.373" viewBox="0 0 20 16.373"><defs><style>.a{fill:#f80303;}</style></defs><path class="a" d="M19.257,54.241h-2.73V51.617h2.73a.743.743,0,1,0,0-1.485h-2.73V46.491a1.756,1.756,0,0,0-.312-1.159A1,1,0,0,0,15.4,45a.958.958,0,0,0-.784.329,1.777,1.777,0,0,0-.308,1.162v3.641H9.174l-2.184-3.3c-.187-.295-.363-.571-.533-.836a3.718,3.718,0,0,0-.445-.578,1.424,1.424,0,0,0-.435-.3A1.441,1.441,0,0,0,4.982,45a1.5,1.5,0,0,0-.839.253,1.389,1.389,0,0,0-.55.636A3.255,3.255,0,0,0,3.445,47v3.128H.742a.743.743,0,0,0,0,1.485h2.7v2.624H.743a.743.743,0,1,0,0,1.485h2.7v4.157a1.718,1.718,0,0,0,.323,1.147,1,1,0,0,0,.814.343,1.02,1.02,0,0,0,.809-.343,1.679,1.679,0,0,0,.328-1.146V55.727h4.647l2.515,3.856c.175.255.355.512.535.764a3.618,3.618,0,0,0,.527.593,1.64,1.64,0,0,0,.537.329,1.983,1.983,0,0,0,.67.1c.68,0,1.377-.208,1.377-1.752V55.727h2.73a.743.743,0,0,0,0-1.486Zm-4.948-2.624v2.624h-2.42l-1.734-2.624ZM5.72,48.6l1,1.53h-1Zm0,5.639V51.617H7.687L9.4,54.241ZM14.309,57.9l-1.438-2.177h1.438V57.9Z" transform="translate(0 -45.001)"/></svg>